<svg width="25" height="24" viewBox="0 0 25 24" fill="none" xmlns="http://www.w3.org/2000/svg">
<g clip-path="url(#clip0_1_1125)">
<path d="M21.3588 2H16.9152L17.4718 7.56597C17.4718 7.56597 18.585 8.67916 20.2548 8.67916C21.4537 8.67916 22.27 8.10526 22.6351 7.7816C22.7806 7.6526 22.8339 7.45566 22.8019 7.26386L22.0175 2.55811C21.9639 2.23605 21.6853 2 21.3588 2Z" stroke="#787B80" stroke-width="1.66979"/>
<path d="M16.9152 2L17.4718 7.56597C17.4718 7.56597 16.3586 8.67916 14.6888 8.67916C13.019 8.67916 11.9058 7.56597 11.9058 7.56597V2H16.9152Z" stroke="#787B80" stroke-width="1.66979"/>
<path d="M11.9058 2V7.56597C11.9058 7.56597 10.7926 8.67916 9.12283 8.67916C7.45304 8.67916 6.33984 7.56597 6.33984 7.56597L6.89644 2H11.9058Z" stroke="#787B80" stroke-width="1.66979"/>
<path d="M6.89564 2H2.45207C2.12557 2 1.84692 2.23605 1.79325 2.55811L1.00895 7.26387C0.976985 7.45566 1.03023 7.6526 1.17572 7.7816C1.54076 8.10526 2.35709 8.67916 3.55603 8.67916C5.22582 8.67916 6.33904 7.56597 6.33904 7.56597L6.89564 2Z" stroke="#787B80" stroke-width="1.66979"/>
<path d="M1.89362 8.67916V19.8111C1.89362 21.0407 2.8904 22.0375 4.12 22.0375H19.7047C20.9344 22.0375 21.9311 21.0407 21.9311 19.8111V8.67916" stroke="#787B80" stroke-width="1.66979"/>
<path d="M15.0671 22.0375V15.3583C15.0671 14.1287 14.0703 13.1319 12.8407 13.1319H10.6143C9.38473 13.1319 8.38794 14.1287 8.38794 15.3583V22.0375" stroke="#787B80" stroke-width="1.66979" stroke-miterlimit="16"/>
</g>
<defs>
<clipPath id="clip0_1_1125">
<rect width="24" height="24" fill="white" transform="translate(0.5)"/>
</clipPath>
</defs>
</svg>
