<svg width="22" height="22" viewBox="0 0 22 22" fill="none" xmlns="http://www.w3.org/2000/svg">
<path d="M19.0506 10.75V19.915C19.0506 20.2381 18.7887 20.5 18.4656 20.5H4.03556C3.71248 20.5 3.45056 20.2381 3.45056 19.915V10.75" stroke="#787B80" stroke-width="1.63575" stroke-linecap="round" stroke-linejoin="round"/>
<path d="M20.415 5.8749H2.085C1.76191 5.8749 1.5 6.13682 1.5 6.4599V10.1649C1.5 10.488 1.76191 10.7499 2.085 10.7499H20.415C20.7381 10.7499 21 10.488 21 10.1649V6.4599C21 6.13682 20.7381 5.8749 20.415 5.8749Z" stroke="#787B80" stroke-width="1.63575" stroke-linecap="round" stroke-linejoin="round"/>
<path d="M11.2494 20.4999V5.8749" stroke="#787B80" stroke-width="1.63575" stroke-linecap="round" stroke-linejoin="round"/>
<path d="M11.25 5.875H6.86249C6.21602 5.875 5.59603 5.61819 5.13891 5.16108C4.68179 4.70396 4.42499 4.08396 4.42499 3.4375C4.42499 2.79104 4.68179 2.17104 5.13891 1.71392C5.59603 1.25681 6.21602 1 6.86249 1C10.275 1 11.25 5.875 11.25 5.875Z" stroke="#787B80" stroke-width="1.63575" stroke-linecap="round" stroke-linejoin="round"/>
<path d="M11.2494 5.875H15.6369C16.2833 5.875 16.9033 5.61819 17.3605 5.16108C17.8176 4.70396 18.0744 4.08396 18.0744 3.4375C18.0744 2.79104 17.8176 2.17104 17.3605 1.71392C16.9033 1.25681 16.2833 1 15.6369 1C12.2244 1 11.2494 5.875 11.2494 5.875Z" stroke="#787B80" stroke-width="1.63575" stroke-linecap="round" stroke-linejoin="round"/>
</svg>
